<svg xmlns="http://www.w3.org/2000/svg" viewBox="0 0 850 600" preserveAspectRatio="xMidYMid meet">
  <g id="background">
    <rect width="850" height="600" fill="#fff"/>
  </g>
  <g id="lines">
    <line id="line-6" x1="206.45" y1="219.15" x2="315.75" y2="258.35" fill="none" stroke="#e0e0e0" stroke-width="0.78"/>
    <line id="line-5" x1="205.98" y1="381.76" x2="314.42" y2="341.78" fill="none" stroke="#e0e0e0" stroke-width="0.78"/>
    <line id="line-4" x1="314.34" y1="506.79" x2="371.68" y2="406.66" fill="none" stroke="#e0e0e0" stroke-width="0.78"/>
    <line id="line-3" x1="470.44" y1="411.57" x2="509.92" y2="520.03" fill="none" stroke="#e0e0e0" stroke-width="0.78"/>
    <line id="line-2" x1="537.87" y1="341.83" x2="646.91" y2="380.93" fill="none" stroke="#e0e0e0" stroke-width="0.78"/>
    <line id="line-1" x1="537.37" y1="259.16" x2="645.97" y2="219.63" fill="none" stroke="#e0e0e0" stroke-width="0.78"/>
  </g>
  <g id="circle-1">
    <path id="circle-1-path" d="M545.15,300.8a119,119,0,1,1-119-118.86A118.94,118.94,0,0,1,545.15,300.8Z" fill="none" stroke="#bcbcbc" stroke-width="0.78"/>
    <rect id="dot-1-5" x="312.76" y="339.63" width="3.71" height="3.62" transform="translate(-98.68 129.9) rotate(-20.24)"/>
    <rect id="dot-1-4" x="369.72" y="404.77" width="3.71" height="3.71" transform="translate(-165.8 527.59) rotate(-60.26)"/>
    <rect id="dot-1-3" x="468.28" y="409.6" width="3.62" height="3.71" transform="translate(-112.38 185.59) rotate(-20)"/>
    <rect id="dot-1-2" x="536.28" y="339.62" width="3.71" height="3.71" transform="translate(33.2 730.36) rotate(-70)"/>
    <rect id="dot-1-1" x="536.01" y="257.08" width="3.71" height="3.62" transform="translate(-56.11 199.57) rotate(-20)"/>
    <g id="dot-1-6">
      <rect id="dot-1-6-detect" x="308.01" y="250.8" width="14.84" height="14.84" transform="translate(-34.03 468.11) rotate(-70.29)" opacity="0"/>
      <rect id="dot-1-6-dot" x="313.57" y="256.37" width="3.71" height="3.71" transform="translate(-34.03 468.11) rotate(-70.29)"/>
    </g>
    <g id="year-1">
      <rect x="393.3" y="171.44" width="62.69" height="27.19" rx="13.6" fill="#f4f4f4"/>
      <text id="year-1-text" transform="translate(408.23 191.23)" font-size="16" font-family="IBMPlexSans, IBM Plex Sans">2022</text>
    </g>
  </g>
  <g id="circle-2">
    <path id="circle-2-path" d="M603.14,300.8c0,97.63-79.24,176.77-177,176.77s-177-79.14-177-176.77S328.39,124,426.14,124,603.14,203.17,603.14,300.8Z" fill="none" stroke="#bcbcbc" stroke-width="0.78"/>
    <rect id="dot-2-6" x="258.7" y="236.72" width="3.71" height="3.71" transform="translate(-51.9 403.43) rotate(-70.29)"/>
    <rect id="dot-2-5" x="258.02" y="359.81" width="3.71" height="3.62" transform="translate(-109.04 112.21) rotate(-20.24)"/>
    <rect id="dot-2-4" x="340.81" y="455.38" width="3.71" height="3.71" transform="translate(-224.32 528) rotate(-60.26)"/>
    <rect id="dot-2-3" x="487.87" y="463.43" width="3.62" height="3.71" transform="translate(-129.61 195.54) rotate(-20)"/>
    <rect id="dot-2-2" x="590.05" y="359.19" width="3.71" height="3.71" transform="translate(50.19 793.77) rotate(-70)"/>
    <rect id="dot-2-1" x="589.84" y="237.48" width="3.71" height="3.62" transform="translate(-46.16 216.8) rotate(-20)"/>
    <g id="year-2">
      <rect x="393.3" y="113.72" width="62.69" height="27.19" rx="13.6" fill="#f4f4f4"/>
      <text id="year-2-text" transform="translate(408.23 133.5)" font-size="16" font-family="IBMPlexSans, IBM Plex Sans">2023</text>
    </g>
  </g>
  <g id="circle-3">
    <path id="circle-3-path" d="M660.79,300.92C660.79,430.2,555.85,535,426.4,535S192,430.2,192,300.92,297,66.83,426.4,66.83,660.79,171.64,660.79,300.92Z" fill="none" stroke="#bcbcbc" stroke-width="0.78"/>
    <rect id="dot-3-6" x="204.83" y="217.42" width="3.71" height="3.71" transform="translate(-69.44 339.92) rotate(-70.29)"/>
    <rect id="dot-3-5" x="204.26" y="379.62" width="3.71" height="3.62" transform="translate(-119.22 94.84) rotate(-20.24)"/>
    <rect id="dot-3-4" x="312.43" y="505.07" width="3.71" height="3.71" transform="translate(-281.77 528.39) rotate(-60.26)"/>
    <rect id="dot-3-3" x="507.82" y="518.26" width="3.62" height="3.71" transform="translate(-147.16 205.67) rotate(-20)"/>
    <rect id="dot-3-2" x="644.82" y="379.12" width="3.71" height="3.71" transform="translate(67.5 858.35) rotate(-70)"/>
    <rect id="dot-3-1" x="644.67" y="217.53" width="3.71" height="3.62" transform="translate(-36.03 234.35) rotate(-20)"/>
    <g id="year-3">
      <rect x="393.3" y="55.72" width="62.69" height="27.19" rx="13.6" fill="#f4f4f4"/>
      <text id="year-3-text" transform="translate(408.23 75.5)" font-size="16" font-family="IBMPlexSans, IBM Plex Sans">2024</text>
    </g>
  </g>
  <g id="labels">
    <text id="label-6" transform="translate(143.17 221.19)" font-size="12" font-family="IBMPlexSans, IBM Plex Sans" letter-spacing="0.03em">Systems</text>
    <text id="label-5" transform="translate(143.17 387.19)" font-size="12" font-family="IBMPlexSans, IBM Plex Sans" letter-spacing="0.03em">Quantum</text>
    <text id="label-4" transform="translate(260.13 524.02)" font-size="12" font-family="IBMPlexSans, IBM Plex Sans" letter-spacing="0.03em">Security</text>
    <text id="label-3" transform="translate(514.13 544.02)" font-size="12" font-family="IBMPlexSans, IBM Plex Sans" letter-spacing="0.03em">Hybrid Cloud</text>
    <text id="label-2" transform="translate(658.11 389.09)" font-size="12" font-family="IBMPlexSans, IBM Plex Sans" letter-spacing="0.03em">AI</text>
    <text id="label-1" transform="translate(661.07 220.93)" font-size="12" font-family="IBMPlexSans, IBM Plex Sans" letter-spacing="0.03em">Semiconductors</text>
  </g>
</svg>
