<svg width="59" height="24" viewBox="0 0 59 24" fill="none" xmlns="http://www.w3.org/2000/svg">
<path fill-rule="evenodd" clip-rule="evenodd" d="M0 23.9996H11.2969V22.4712H0V23.9996Z" fill="white"/>
<path fill-rule="evenodd" clip-rule="evenodd" d="M0 20.7902H11.2969V19.2617H0V20.7902Z" fill="white"/>
<path fill-rule="evenodd" clip-rule="evenodd" d="M3.22803 17.581H8.06964V16.0532H3.22803V17.581Z" fill="white"/>
<path fill-rule="evenodd" clip-rule="evenodd" d="M3.22803 14.3727H8.06964V12.8442H3.22803V14.3727Z" fill="white"/>
<path fill-rule="evenodd" clip-rule="evenodd" d="M3.22803 11.1635H8.06964V9.63574H3.22803V11.1635Z" fill="white"/>
<path fill-rule="evenodd" clip-rule="evenodd" d="M3.22754 7.95422H8.06915V6.42578H3.22754V7.95422Z" fill="white"/>
<path fill-rule="evenodd" clip-rule="evenodd" d="M0 4.74502H11.2969V3.21729H0V4.74502Z" fill="white"/>
<path fill-rule="evenodd" clip-rule="evenodd" d="M0 1.53527H11.2969V0.00683594H0V1.53527Z" fill="white"/>
<path fill-rule="evenodd" clip-rule="evenodd" d="M12.9106 22.4717V23.9995H24.7943C26.3158 23.9995 27.7084 23.4242 28.7834 22.4717H12.9106Z" fill="white"/>
<path fill-rule="evenodd" clip-rule="evenodd" d="M12.9106 19.2622V20.7907H30.1299C30.3934 20.316 30.6001 19.8037 30.7412 19.2622H12.9106Z" fill="white"/>
<mask id="mask0_1015_23862" style="mask-type:alpha" maskUnits="userSpaceOnUse" x="0" y="0" width="59" height="24">
<path fill-rule="evenodd" clip-rule="evenodd" d="M0 24H58.1065V0H0V24Z" fill="white"/>
</mask>
<g mask="url(#mask0_1015_23862)">
<path fill-rule="evenodd" clip-rule="evenodd" d="M16.1379 17.581H20.9795V16.0532H16.1379V17.581Z" fill="white"/>
<path fill-rule="evenodd" clip-rule="evenodd" d="M28.8915 12.8438H16.1379V14.3722H30.0759C29.7577 13.8007 29.3566 13.2862 28.8915 12.8438Z" fill="white"/>
<path fill-rule="evenodd" clip-rule="evenodd" d="M16.1379 9.63525V11.163H28.9447C29.4099 10.7205 29.8102 10.2067 30.1285 9.63525H16.1379Z" fill="white"/>
<path fill-rule="evenodd" clip-rule="evenodd" d="M30.741 4.74502C30.6006 4.20352 30.3939 3.69203 30.1297 3.21729H12.9104V4.74502H30.741Z" fill="white"/>
<path fill-rule="evenodd" clip-rule="evenodd" d="M28.7834 1.53554C27.7084 0.583055 26.3158 0.0078125 24.7943 0.0078125H12.9106V1.53554H28.7834Z" fill="white"/>
<path fill-rule="evenodd" clip-rule="evenodd" d="M16.1379 7.95422H20.9795V6.42578H16.1379V7.95422Z" fill="white"/>
<path fill-rule="evenodd" clip-rule="evenodd" d="M25.5273 7.9543H30.7765C30.891 7.46455 30.9558 6.95304 30.9558 6.42578H25.5273V7.9543Z" fill="white"/>
<path fill-rule="evenodd" clip-rule="evenodd" d="M25.5273 16.0532V17.581H30.9558C30.9558 17.0538 30.891 16.543 30.7765 16.0532H25.5273Z" fill="white"/>
<path fill-rule="evenodd" clip-rule="evenodd" d="M41.372 -0.000488281H32.2764V1.52803H41.8811L41.372 -0.000488281Z" fill="white"/>
<path fill-rule="evenodd" clip-rule="evenodd" d="M32.2771 23.9996H40.3489V22.4712H32.2771V23.9996Z" fill="white"/>
<path fill-rule="evenodd" clip-rule="evenodd" d="M32.2771 20.7898H40.3489V19.2612H32.2771V20.7898Z" fill="white"/>
<path fill-rule="evenodd" clip-rule="evenodd" d="M35.5049 17.5788H40.3487V16.0503H35.5049V17.5788Z" fill="white"/>
<path fill-rule="evenodd" clip-rule="evenodd" d="M35.5049 14.3689H40.3487V12.8403H35.5049V14.3689Z" fill="white"/>
<path fill-rule="evenodd" clip-rule="evenodd" d="M50.0347 23.9996H58.1064V22.4712H50.0347V23.9996Z" fill="white"/>
<path fill-rule="evenodd" clip-rule="evenodd" d="M50.0347 20.7898H58.1064V19.2612H50.0347V20.7898Z" fill="white"/>
<path fill-rule="evenodd" clip-rule="evenodd" d="M50.0347 17.5788H54.8777V16.0503H50.0347V17.5788Z" fill="white"/>
<path fill-rule="evenodd" clip-rule="evenodd" d="M50.0339 14.3689H54.877V12.8403H50.0339V14.3689Z" fill="white"/>
<path fill-rule="evenodd" clip-rule="evenodd" d="M50.0349 11.1589H54.878V9.63037H50.0349H45.7996L45.2905 11.1589H49.541L50.0349 9.70387V11.1589Z" fill="white"/>
<path fill-rule="evenodd" clip-rule="evenodd" d="M44.583 9.62988H40.3484H35.5054V11.1584H40.3484V9.70338L40.8424 11.1584H45.0928L44.583 9.62988Z" fill="white"/>
<path fill-rule="evenodd" clip-rule="evenodd" d="M54.8773 6.41992H46.8689L46.3599 7.94844H54.8773V6.41992Z" fill="white"/>
<path fill-rule="evenodd" clip-rule="evenodd" d="M49.0074 -0.000488281L48.4983 1.52803H58.1066V-0.000488281H49.0074Z" fill="white"/>
<path fill-rule="evenodd" clip-rule="evenodd" d="M45.1885 23.9991L45.7069 22.4707H44.6758L45.1885 23.9991Z" fill="white"/>
<path fill-rule="evenodd" clip-rule="evenodd" d="M44.1061 20.7898H46.277L46.7947 19.2612H43.5876L44.1061 20.7898Z" fill="white"/>
<path fill-rule="evenodd" clip-rule="evenodd" d="M43.0175 17.5794H47.3644L47.8828 16.0508H42.4998L43.0175 17.5794Z" fill="white"/>
<path fill-rule="evenodd" clip-rule="evenodd" d="M41.9293 14.3689H48.453L48.9707 12.8403H41.4109L41.9293 14.3689Z" fill="white"/>
<path fill-rule="evenodd" clip-rule="evenodd" d="M35.5049 7.94836H44.0231L43.514 6.41992H35.5049V7.94836Z" fill="white"/>
<path fill-rule="evenodd" clip-rule="evenodd" d="M47.4285 4.73848H58.1061V3.20996H47.9375L47.4285 4.73848Z" fill="white"/>
<path fill-rule="evenodd" clip-rule="evenodd" d="M42.4447 3.20947H32.2769V4.73791H42.9537L42.4447 3.20947Z" fill="white"/>
</g>
</svg>
