<svg width="43" height="17" viewBox="0 0 43 17" fill="none" xmlns="http://www.w3.org/2000/svg">
<path fill-rule="evenodd" clip-rule="evenodd" d="M23.9189 0H30.559L30.9964 1.2087H23.9189V0Z" fill="#010202"/>
<path fill-rule="evenodd" clip-rule="evenodd" d="M18.6349 0C19.7013 0.0807258 20.7096 0.50612 21.4997 1.2087H9.45117V0H18.6349Z" fill="#010202"/>
<path fill-rule="evenodd" clip-rule="evenodd" d="M0 1.2087H8.37152V0H0V1.2087Z" fill="#010202"/>
<path fill-rule="evenodd" clip-rule="evenodd" d="M43.0003 3.47841H35.0215L35.4499 2.28711H43.0003V3.47841Z" fill="#010202"/>
<path fill-rule="evenodd" clip-rule="evenodd" d="M31.8175 3.47823H23.9189V2.26953H31.3891L31.8175 3.47823Z" fill="#010202"/>
<path fill-rule="evenodd" clip-rule="evenodd" d="M22.4368 2.28711C22.6366 2.65942 22.7551 3.06799 22.7849 3.48711H9.45117V2.28711H22.4368Z" fill="#010202"/>
<path fill-rule="evenodd" clip-rule="evenodd" d="M0 3.47823H8.37152V2.26953H0V3.47823Z" fill="#010202"/>
<path fill-rule="evenodd" clip-rule="evenodd" d="M34.2002 5.74776L34.6375 4.53906H40.6261V5.74776H34.2002Z" fill="#010202"/>
<path fill-rule="evenodd" clip-rule="evenodd" d="M32.2005 4.53906L32.6378 5.74776H26.2744V4.53906H32.2005Z" fill="#010202"/>
<path fill-rule="evenodd" clip-rule="evenodd" d="M22.8833 4.53906C22.8946 4.95397 22.8374 5.36796 22.7137 5.76515H19.0635V4.53906H22.8833Z" fill="#010202"/>
<path fill-rule="evenodd" clip-rule="evenodd" d="M2.3291 5.74785H5.92582V4.54785H2.3291V5.74785Z" fill="#010202"/>
<path fill-rule="evenodd" clip-rule="evenodd" d="M11.8789 5.74776H15.4667V4.53906H11.8789V5.74776Z" fill="#010202"/>
<path fill-rule="evenodd" clip-rule="evenodd" d="M29.8092 7.05209V7.97383H26.2393V6.76514H33.0222L33.4416 7.88688L33.8432 6.76514H40.6351V7.97383H37.1098V7.05209L36.7795 7.97383H30.1305L29.8092 7.05209Z" fill="#010202"/>
<path fill-rule="evenodd" clip-rule="evenodd" d="M11.8789 6.76514H22.1782C21.9138 7.22263 21.5695 7.63167 21.1608 7.97383H11.8789V6.76514Z" fill="#010202"/>
<path fill-rule="evenodd" clip-rule="evenodd" d="M2.3291 7.96514H5.92582V6.76514H2.3291V7.96514Z" fill="#010202"/>
<path fill-rule="evenodd" clip-rule="evenodd" d="M37.1094 10.2347H40.6258V9.03467H37.1094V10.2347Z" fill="#010202"/>
<path fill-rule="evenodd" clip-rule="evenodd" d="M29.8092 9.03467H26.2393V10.2347H29.8092V9.03467Z" fill="#010202"/>
<path fill-rule="evenodd" clip-rule="evenodd" d="M36.3952 9.03457C36.3952 9.03457 35.9846 10.2346 35.9668 10.2346H30.951L30.5137 9.02588L36.3952 9.03457Z" fill="#010202"/>
<path fill-rule="evenodd" clip-rule="evenodd" d="M11.8789 9.03467H21.1429C21.5624 9.38745 21.9343 9.79067 22.2496 10.2347H11.8789V9.03467Z" fill="#010202"/>
<path fill-rule="evenodd" clip-rule="evenodd" d="M5.92639 10.2347V9.03467H2.35645V10.2347H5.92639Z" fill="#010202"/>
<path fill-rule="evenodd" clip-rule="evenodd" d="M37.1094 12.5042H40.6258V11.3042H37.1094V12.5042Z" fill="#010202"/>
<path fill-rule="evenodd" clip-rule="evenodd" d="M26.2744 12.5042H29.8087V11.3042H26.2744V12.5042Z" fill="#010202"/>
<path fill-rule="evenodd" clip-rule="evenodd" d="M35.146 12.5129L35.5833 11.3042H31.3262L31.7635 12.5042H35.146" fill="#010202"/>
<path fill-rule="evenodd" clip-rule="evenodd" d="M11.8789 12.5042V11.3042H15.5203V12.5042H11.8789Z" fill="#010202"/>
<path fill-rule="evenodd" clip-rule="evenodd" d="M22.7584 11.3042C22.9088 11.6905 22.9874 12.0998 22.9904 12.5129H19.126V11.3042H22.7584Z" fill="#010202"/>
<path fill-rule="evenodd" clip-rule="evenodd" d="M2.33789 12.5041H5.92569V11.2954H2.33789V12.5041Z" fill="#010202"/>
<path fill-rule="evenodd" clip-rule="evenodd" d="M37.1094 14.722H42.9909V13.522H37.1094V14.722Z" fill="#010202"/>
<path fill-rule="evenodd" clip-rule="evenodd" d="M23.9189 14.722H29.8094V13.522H23.9189V14.722Z" fill="#010202"/>
<path fill-rule="evenodd" clip-rule="evenodd" d="M34.3513 14.722H32.5574L32.1201 13.522H34.7708L34.3513 14.722Z" fill="#010202"/>
<path fill-rule="evenodd" clip-rule="evenodd" d="M0 13.522V14.722H8.3626V13.522H0Z" fill="#010202"/>
<path fill-rule="evenodd" clip-rule="evenodd" d="M22.8385 13.522C22.7902 13.9552 22.6272 14.3687 22.3655 14.722H9.45117V13.522H22.8385Z" fill="#010202"/>
<path fill-rule="evenodd" clip-rule="evenodd" d="M33.5392 16.9915H33.3697L32.9502 15.7915H33.9676L33.5392 16.9915Z" fill="#010202"/>
<path fill-rule="evenodd" clip-rule="evenodd" d="M37.1094 17.0002H42.9909V15.7915H37.1094V17.0002Z" fill="#010202"/>
<path fill-rule="evenodd" clip-rule="evenodd" d="M9.45117 16.9915V15.7915H21.5711C20.7234 16.5634 19.6078 16.9951 18.4474 17.0002H9.45117" fill="#010202"/>
<path fill-rule="evenodd" clip-rule="evenodd" d="M23.9189 17.0002H29.8094V15.7915H23.9189V17.0002Z" fill="#010202"/>
<path fill-rule="evenodd" clip-rule="evenodd" d="M8.3626 15.7915V16.9915H0V15.7915H8.3626Z" fill="#010202"/>
<path fill-rule="evenodd" clip-rule="evenodd" d="M36.2791 0L35.8418 1.2087H42.9906V0H36.2791Z" fill="#010202"/>
</svg>
